<svg id="Layer_1" viewBox="0 0 512 512" xmlns="http://www.w3.org/2000/svg" data-name="Layer 1"><path d="m187.302 306.613c6.832-11.877 19.786-20.24 35.235-25.03 19.19 16.668 47.735 16.668 66.926 0 15.449 4.791 28.403 13.153 35.235 25.058-32.769 48.813-104.627 48.813-137.396-.028zm285.761-171.298-18.851 24.35 13.38 27.723-28.97-10.431-22.252 21.317.964-30.784-27.156-14.57 29.594-8.589 5.471-30.302 17.319 25.455 30.501-4.167zm-91.729-91.758-4.167 30.529 25.455 17.32-30.302 5.471-8.618 29.565-14.57-27.127-30.784.935 21.316-22.224-10.403-28.97 27.723 13.379 24.35-18.879zm-342.397 91.758 30.529 4.167 17.319-25.455 5.471 30.302 29.565 8.589-27.127 14.57.936 30.784-22.224-21.317-28.999 10.431 13.408-27.723-18.879-24.35zm91.757-91.758 24.321 18.879 27.751-13.379-10.432 28.97 21.316 22.224-30.784-.935-14.57 27.127-8.589-29.565-30.331-5.471 25.483-17.32-4.167-30.529zm125.32-33.562 11.65 28.517 30.699 2.268-23.499 19.871 7.313 29.934-26.164-16.242-26.192 16.242 7.341-29.934-23.527-19.871 30.728-2.268 11.65-28.517zm0 193.975c21.572 0 39.033 17.49 39.033 39.062s-17.461 39.061-39.033 39.061-39.062-17.49-39.062-39.061 17.49-39.062 39.062-39.062zm-23.471-82.8c14.06-9.865 32.882-9.865 46.941 0 7.852 5.528 16.356 7.795 25.909 6.945 17.122-1.502 33.42 7.909 40.677 23.471 4.054 8.731 10.261 14.939 18.964 18.992 15.59 7.257 25.001 23.528 23.471 40.649-.822 9.581 1.446 18.057 6.945 25.937 9.865 14.06 9.865 32.882 0 46.942-5.499 7.852-7.767 16.356-6.945 25.937 1.531 17.093-7.88 33.392-23.471 40.649-8.703 4.053-14.91 10.261-18.964 18.964-7.257 15.591-23.556 25.002-40.677 23.499-9.553-.85-18.057 1.417-25.909 6.945-14.06 9.865-32.882 9.865-46.941 0-7.88-5.527-16.356-7.795-25.937-6.945-17.122 1.502-33.42-7.909-40.649-23.499-4.054-8.702-10.29-14.91-18.992-18.964-15.562-7.257-24.973-23.556-23.471-40.649.85-9.581-1.417-18.085-6.945-25.937-9.865-14.06-9.865-32.882 0-46.942 5.527-7.88 7.795-16.356 6.945-25.937-1.502-17.121 7.909-33.392 23.471-40.649 8.702-4.053 14.938-10.261 18.992-18.992 7.229-15.562 23.527-24.973 40.649-23.471 9.581.851 18.057-1.417 25.937-6.945zm23.471 44.788c52.271 0 94.649 42.406 94.649 94.677s-42.378 94.649-94.649 94.649-94.677-42.378-94.677-94.649 42.378-94.677 94.677-94.677zm-103.209 204.746-28.8 107.49 55.36-29.027 33.449 52.838 23.159-86.457c-3.628-1.474-7.086-3.373-10.318-5.641-5.528-3.884-11.282-5.414-18-4.819-22.139 1.956-43.229-10.233-52.583-30.359-.68-1.446-1.417-2.806-2.268-4.025zm206.391 0 28.8 107.49-55.36-29.027-33.449 52.838-23.159-86.457c3.628-1.474 7.086-3.373 10.346-5.641 5.528-3.884 11.254-5.414 17.972-4.819 22.139 1.956 43.229-10.233 52.583-30.359.68-1.446 1.445-2.806 2.268-4.025z" fill-rule="evenodd"/></svg>