<svg id="Layer_1" viewBox="0 0 512 512" xmlns="http://www.w3.org/2000/svg" data-name="Layer 1"><path d="m254.875 367.867c-.823-5.417-1.803-10.505-2.934-15.16 6.14.677 12.279.574 18.371-.311 1.171 4.24 2.212 9.034 3.099 14.257-6.346-1.001-12.656-.521-18.535 1.214zm-18.679 70.161-22.907 39.655 9.498-1.1c3.066-.351 6.007 1.343 7.231 4.178l3.783 8.761 22.906-39.707c-.284-.07-.57-.123-.854-.2-7.608-2.038-14.346-6.046-19.656-11.587zm51.879 7.351c-3.521 2.032-7.253 3.51-11.092 4.46l22.893 39.684 3.782-8.761c1.225-2.835 4.162-4.532 7.231-4.178l9.498 1.1-22.908-39.656c-2.74 2.843-5.889 5.324-9.403 7.352zm-28.598-9.284c-7.358-1.97-13.504-6.68-17.306-13.26-3.802-6.581-4.812-14.255-2.843-21.607 3.408-12.701 14.937-21.097 27.501-21.097 2.434 0 4.907.315 7.367.975 15.154 4.065 24.193 19.712 20.152 34.868-1.97 7.343-6.682 13.48-13.269 17.281s-14.257 4.811-21.602 2.84zm4.524-16.866c5.854 1.561 11.888-1.921 13.45-7.776 1.561-5.854-1.921-11.889-7.776-13.45-5.854-1.591-11.888 1.891-13.45 7.746-1.561 5.884 1.922 11.889 7.776 13.48zm.521 45.05c1.639.106 3.276.266 4.91.483l-2.594-4.497zm-180.077-65.435c0 5.211-.512 10.296-1.506 15.095 8.09-.945 15.109-1.342 22.263-1.274.042-1.33.069-2.671.069-4.034 0-34.091-13.383-58.065-27.258-62.371-1.601-.227-3.203-.448-4.803-.682-4.717.123-9.521 2.628-13.907 7.155 4.684.689 9.091 2.976 12.649 6.674 7.703 7.986 12.492 23.1 12.492 39.437zm-10.286 30.424c-.356.055-.713.082-1.067.082-2.132 0-4.172-.975-5.51-2.685-1.56-1.993-1.923-4.674-.948-7.01 2.495-5.977 3.813-13.173 3.813-20.811 0-12.462-3.446-24.408-8.576-29.726-1.997-2.076-4.356-2.938-6.832-2.5-3.085.547-5.952 3.048-7.484 6.526l-.048-.021c-3.473 9.803-5.633 21.836-5.633 35.508 0 37.428 16.131 62.654 31.333 63.053 1.607-.234 3.218-.461 4.828-.689 11.267-3.513 22.196-20.001 25.902-44.336-9.016-.014-17.991.792-29.779 2.609zm151.648-31.665c2.595-9.673 8.355-17.664 15.861-23.177-.729-5.625-1.63-10.869-2.685-15.641-44.943-.604-90.452-3.687-135.743-9.197 9.858 14.03 16.03 35.092 16.03 59.042s-6.178 45.036-16.046 59.066c34.337-4.134 69.316-6.878 104.395-8.183l19.996-34.615c-3.601-8.612-4.265-18.12-1.808-27.295zm213.076-52.037c-50.625 7.391-101.965 11.751-152.746 12.987.854 4.221 1.604 8.732 2.236 13.469 16.015 9.447 24.514 28.75 19.496 47.569-.489 1.823-1.101 3.59-1.81 5.306l20.597 35.655c37.643 2.053 75.374 5.788 112.225 11.143 15.177-.495 31.244-25.709 31.244-63.064s-16.066-62.566-31.242-63.064zm-182.884-137.408c-.787 0-1.573-.133-2.326-.398l-146.3-51.554v54.954c52.054 30.243 100.71 45.339 148.626 46.112 47.916-.772 96.571-15.869 148.626-46.112v-54.954l-146.3 51.554c-.753.265-1.54.398-2.326.398zm243-100.05-242.999-85.63-243 85.631 243 85.63 243-85.63zm-243 163.163c-.037 0-.073 0-.11 0-48.224-.756-96.916-15.165-148.516-43.992v25.564c52.092 30.267 100.743 45.363 148.626 46.135 47.883-.772 96.533-15.868 148.626-46.135v-25.564c-51.6 28.827-100.292 43.236-148.516 43.992-.037 0-.073 0-.11 0zm206.274-20.117c3.49-3.892 5.617-9.032 5.617-14.662 0-9.65-6.265-17.859-14.94-20.787v-76.525l-13.998 4.933v71.592c-8.675 2.929-14.94 11.137-14.94 20.787 0 5.63 2.127 10.77 5.617 14.662l-13.553 39.905c-1.155 3.377-.982 6.975.48 10.115 1.661 3.615 4.567 5.688 7.972 5.688h42.845c3.405 0 6.311-2.073 7.965-5.672 1.469-3.155 1.642-6.753.49-10.124l-13.556-39.912z" fill-rule="evenodd"/></svg>