<svg id="Layer_1" height="512" viewBox="0 0 24 24" width="512" xmlns="http://www.w3.org/2000/svg" data-name="Layer 1"><path d="m22.17 9.866a1.683 1.683 0 0 0 -.69-2.12l-1.92-1.14a.178.178 0 0 1 -.09-.12l-.5-2.19a1.692 1.692 0 0 0 -1.8-1.31l-2.23.2a.149.149 0 0 1 -.14-.04l-1.69-1.48a1.7 1.7 0 0 0 -2.22 0l-1.69 1.48a.149.149 0 0 1 -.14.04l-2.23-.2a1.683 1.683 0 0 0 -1.8 1.314l-.5 2.19a.178.178 0 0 1 -.09.12l-1.92 1.136a1.683 1.683 0 0 0 -.69 2.12l.89 2.06a.2.2 0 0 1 0 .15l-.89 2.06a1.674 1.674 0 0 0 .69 2.11l1.93 1.154a.2.2 0 0 1 .08.12l.5 2.19a1.683 1.683 0 0 0 1.8 1.31l2.23-.21a.187.187 0 0 1 .14.05l1.69 1.48a1.708 1.708 0 0 0 2.22 0l1.69-1.48a.187.187 0 0 1 .14-.05l2.23.21a1.683 1.683 0 0 0 1.8-1.31l.5-2.19a.178.178 0 0 1 .09-.12l1.92-1.15a1.674 1.674 0 0 0 .69-2.11l-.89-2.06a.2.2 0 0 1 0-.15zm-5.68.12-4.96 5.08a.791.791 0 0 1 -.54.22.74.74 0 0 1 -.44-.14l-2.94-2.1a.752.752 0 0 1 .88-1.22l2.41 1.73 4.52-4.62a.745.745 0 0 1 1.06-.01.754.754 0 0 1 .01 1.06z"/></svg>